<?xml version="1.0" encoding="UTF-8"?>
<!DOCTYPE svg PUBLIC "-//W3C//DTD SVG 1.1//EN" "http://www.w3.org/Graphics/SVG/1.1/DTD/svg11.dtd">
<!-- Creator: CorelDRAW 2020 (64 Bit) -->
<svg xmlns="http://www.w3.org/2000/svg" xml:space="preserve" width="4.2332mm" height="4.2332mm" version="1.1" style="shape-rendering:geometricPrecision; text-rendering:geometricPrecision; image-rendering:optimizeQuality; fill-rule:evenodd; clip-rule:evenodd"
viewBox="0 0 423.32 423.32"
 xmlns:xlink="http://www.w3.org/1999/xlink"
 xmlns:xodm="http://www.corel.com/coreldraw/odm/2003">
 <defs>
  <style type="text/css">
   <![CDATA[
    .fil1 {fill:#FFF212}
    .fil3 {fill:#ED3237}
    .fil2 {fill:#00A859}
    .fil0 {fill:#303B7C}
    .fil4 {fill:#FEFEFE;fill-rule:nonzero}
   ]]>
  </style>
 </defs>
 <g id="Camada_x0020_1">
  <metadata id="CorelCorpID_0Corel-Layer"/>
  <g id="_1351431856">
   <path class="fil0" d="M89.57 8.38c87.23,0 156.92,0 244.15,0 33.85,2.46 51.76,37.74 52,96.18 0,81.3 0,128.36 0,209.66 -0.03,72.61 -27.76,100.97 -53.66,100.55 -87.23,0 -153.14,0 -240.37,0 -33.78,0.75 -54.9,-40.38 -54.76,-102.61 0,-81.31 0,-126.47 0,-207.78 0.04,-57.29 22.16,-95.79 52.64,-96z"/>
   <rect class="fil1" x="354.82" y="175.78" width="58.81" height="57.48"/>
   <rect class="fil2" x="354.88" y="94.72" width="58.81" height="57.48"/>
   <rect class="fil3" x="355.12" y="256.79" width="58.81" height="57.48"/>
   <rect class="fil1" x="7.53" y="179.53" width="58.81" height="57.48"/>
   <rect class="fil2" x="7.6" y="98.47" width="58.81" height="57.48"/>
   <rect class="fil3" x="7.83" y="260.54" width="58.81" height="57.48"/>
   <path class="fil4" d="M84.21 310.1l0 -230.3 72.02 0 0 50.57 -40.78 0 0 39.94 38.45 0 0 49.28 -38.45 0 0 38.97 40.78 0 0 51.54 -72.02 0zm110.14 0l0 -175.86 -26.31 0 0 -54.44 84.68 0 0 54.44 -26.31 0 0 175.86 -32.06 0zm74.02 0l0 -230.3 72.02 0 0 50.57 -40.78 0 0 39.94 38.45 0 0 49.28 -38.45 0 0 38.97 40.78 0 0 51.54 -72.02 0z"/>
   <path class="fil4" d="M76.19 371.69l0 -31.49 8.81 0 0 6.91 -4.99 0 0 5.47 4.7 0 0 6.73 -4.7 0 0 5.33 4.99 0 0 7.05 -8.81 0zm12.04 -10.17c0.58,1.44 1.15,2.52 1.72,3.24 0.57,0.71 1.13,1.07 1.69,1.07 0.53,0 0.96,-0.31 1.29,-0.92 0.34,-0.62 0.51,-1.4 0.51,-2.34 0,-1.05 -0.14,-1.85 -0.44,-2.42 -0.29,-0.56 -0.95,-1.15 -1.97,-1.75 -1.41,-0.83 -2.41,-1.92 -2.99,-3.25 -0.58,-1.33 -0.88,-3.16 -0.88,-5.48 0,-3.02 0.46,-5.47 1.39,-7.37 0.91,-1.9 2.11,-2.85 3.58,-2.85 0.79,0 1.54,0.23 2.25,0.7 0.71,0.47 1.39,1.17 2.02,2.12l-1.23 6.16c-0.44,-0.82 -0.9,-1.45 -1.37,-1.87 -0.46,-0.42 -0.93,-0.64 -1.39,-0.64 -0.47,0 -0.85,0.25 -1.14,0.75 -0.3,0.49 -0.45,1.13 -0.45,1.9 0,0.78 0.13,1.41 0.39,1.89 0.26,0.47 0.76,0.93 1.5,1.35l0.17 0.11c1.6,0.95 2.65,1.98 3.16,3.12 0.34,0.77 0.6,1.7 0.77,2.78 0.18,1.09 0.27,2.29 0.27,3.61 0,3.34 -0.5,6.03 -1.5,8.05 -1,2.04 -2.34,3.05 -4.01,3.05 -1,0 -1.91,-0.38 -2.74,-1.12 -0.82,-0.75 -1.61,-1.91 -2.37,-3.51l1.77 -6.38zm21.46 -20.09l0 9.38c-0.54,-1.3 -1.07,-2.26 -1.61,-2.87 -0.53,-0.61 -1.1,-0.91 -1.71,-0.91 -1.13,0 -2.04,0.84 -2.73,2.52 -0.7,1.68 -1.05,3.88 -1.05,6.59 0,2.52 0.35,4.61 1.07,6.27 0.71,1.67 1.61,2.5 2.71,2.5 0.61,0 1.18,-0.3 1.71,-0.91 0.54,-0.6 1.07,-1.57 1.61,-2.88l0 9.38c-0.62,0.66 -1.24,1.16 -1.86,1.49 -0.61,0.33 -1.23,0.49 -1.86,0.49 -0.79,0 -1.51,-0.2 -2.17,-0.6 -0.67,-0.42 -1.28,-1.04 -1.83,-1.87 -1.08,-1.58 -1.89,-3.56 -2.46,-5.95 -0.56,-2.4 -0.84,-5.1 -0.84,-8.09 0,-2.41 0.18,-4.6 0.53,-6.57 0.36,-1.98 0.9,-3.76 1.62,-5.37 0.68,-1.53 1.44,-2.68 2.3,-3.44 0.85,-0.76 1.8,-1.14 2.85,-1.14 0.63,0 1.25,0.16 1.86,0.49 0.62,0.33 1.24,0.83 1.86,1.49zm16.97 14.58c0,2.27 -0.19,4.39 -0.57,6.37 -0.38,1.98 -0.93,3.75 -1.66,5.31 -0.73,1.55 -1.57,2.74 -2.51,3.58 -0.94,0.84 -1.92,1.26 -2.93,1.26 -1.03,0 -2.02,-0.42 -2.96,-1.26 -0.94,-0.84 -1.76,-2.03 -2.47,-3.58 -0.74,-1.56 -1.3,-3.34 -1.69,-5.34 -0.38,-1.99 -0.57,-4.1 -0.57,-6.34 0,-2.25 0.19,-4.37 0.57,-6.36 0.39,-1.98 0.95,-3.76 1.69,-5.32 0.71,-1.55 1.53,-2.74 2.47,-3.58 0.94,-0.84 1.93,-1.26 2.96,-1.26 1.02,0 2,0.42 2.95,1.26 0.94,0.84 1.77,2.03 2.49,3.58 0.72,1.55 1.27,3.32 1.66,5.32 0.38,1.99 0.57,4.11 0.57,6.36zm-7.68 9.25c1.09,0 1.98,-0.87 2.69,-2.62 0.71,-1.75 1.07,-3.96 1.07,-6.63 0,-2.63 -0.36,-4.84 -1.08,-6.61 -0.72,-1.76 -1.61,-2.64 -2.68,-2.64 -1.09,0 -1.98,0.88 -2.7,2.64 -0.71,1.75 -1.06,3.96 -1.06,6.61 0,2.69 0.35,4.91 1.05,6.64 0.7,1.74 1.6,2.61 2.71,2.61zm10.14 6.43l0 -31.49 3.92 0 0 24.14 4.86 0 0 7.35 -8.78 0zm14.5 -11.76l3.9 0 -1.47 -10.39c-0.04,-0.32 -0.1,-0.83 -0.18,-1.53 -0.08,-0.71 -0.18,-1.61 -0.3,-2.71 -0.09,0.77 -0.17,1.51 -0.26,2.22 -0.08,0.69 -0.16,1.37 -0.24,2.02l-1.45 10.39zm-5.49 11.76l4.96 -31.49 4.91 0 4.97 31.49 -3.9 0 -0.73 -5.64 -5.56 0 -0.75 5.64 -3.9 0zm24.58 0l0 -24.05 -3.22 0 0 -7.44 10.36 0 0 7.44 -3.22 0 0 24.05 -3.92 0zm9.05 0l0 -31.49 8.81 0 0 6.91 -4.99 0 0 5.47 4.7 0 0 6.73 -4.7 0 0 5.33 4.99 0 0 7.05 -8.81 0zm7.34 -42.37l-3.03 7.53 -1.52 0 1.79 -7.53 2.76 0zm14.48 12.11l0 9.38c-0.54,-1.3 -1.08,-2.26 -1.61,-2.87 -0.53,-0.61 -1.11,-0.91 -1.71,-0.91 -1.13,0 -2.04,0.84 -2.74,2.52 -0.69,1.68 -1.04,3.88 -1.04,6.59 0,2.52 0.35,4.61 1.06,6.27 0.71,1.67 1.62,2.5 2.72,2.5 0.6,0 1.18,-0.3 1.71,-0.91 0.53,-0.6 1.07,-1.57 1.61,-2.88l0 9.38c-0.62,0.66 -1.24,1.16 -1.86,1.49 -0.61,0.33 -1.23,0.49 -1.86,0.49 -0.79,0 -1.51,-0.2 -2.18,-0.6 -0.66,-0.42 -1.27,-1.04 -1.83,-1.87 -1.07,-1.58 -1.89,-3.56 -2.45,-5.95 -0.56,-2.4 -0.85,-5.1 -0.85,-8.09 0,-2.41 0.18,-4.6 0.54,-6.57 0.36,-1.98 0.9,-3.76 1.61,-5.37 0.68,-1.53 1.45,-2.68 2.31,-3.44 0.85,-0.76 1.8,-1.14 2.85,-1.14 0.63,0 1.25,0.16 1.86,0.49 0.62,0.33 1.24,0.83 1.86,1.49zm2.21 30.26l0 -31.49 3.78 0 5.43 16.19c0.11,0.33 0.28,1 0.52,2 0.24,0.99 0.5,2.18 0.79,3.56 -0.08,-1.31 -0.14,-2.47 -0.17,-3.49 -0.04,-1.02 -0.06,-1.92 -0.06,-2.71l0 -15.55 3.76 0 0 31.49 -3.76 0 -5.43 -16.26c-0.11,-0.33 -0.29,-1 -0.53,-1.99 -0.24,-1 -0.49,-2.17 -0.78,-3.52 0.08,1.32 0.14,2.49 0.17,3.51 0.04,1.02 0.06,1.92 0.06,2.71l0 15.55 -3.78 0zm17.23 0l0 -31.49 3.96 0 0 31.49 -3.96 0zm17.54 -30.26l0 9.38c-0.54,-1.3 -1.08,-2.26 -1.61,-2.87 -0.53,-0.61 -1.11,-0.91 -1.71,-0.91 -1.13,0 -2.04,0.84 -2.74,2.52 -0.7,1.68 -1.04,3.88 -1.04,6.59 0,2.52 0.35,4.61 1.06,6.27 0.71,1.67 1.62,2.5 2.72,2.5 0.6,0 1.18,-0.3 1.71,-0.91 0.53,-0.6 1.07,-1.57 1.61,-2.88l0 9.38c-0.62,0.66 -1.25,1.16 -1.86,1.49 -0.62,0.33 -1.24,0.49 -1.87,0.49 -0.78,0 -1.5,-0.2 -2.17,-0.6 -0.66,-0.42 -1.27,-1.04 -1.83,-1.87 -1.07,-1.58 -1.89,-3.56 -2.45,-5.95 -0.56,-2.4 -0.85,-5.1 -0.85,-8.09 0,-2.41 0.18,-4.6 0.54,-6.57 0.36,-1.98 0.9,-3.76 1.61,-5.37 0.68,-1.53 1.45,-2.68 2.31,-3.44 0.85,-0.76 1.8,-1.14 2.84,-1.14 0.63,0 1.25,0.16 1.87,0.49 0.61,0.33 1.24,0.83 1.86,1.49zm6.01 18.5l3.9 0 -1.47 -10.39c-0.04,-0.32 -0.1,-0.83 -0.18,-1.53 -0.08,-0.71 -0.18,-1.61 -0.3,-2.71 -0.09,0.77 -0.17,1.51 -0.26,2.22 -0.08,0.69 -0.16,1.37 -0.24,2.02l-1.45 10.39zm-5.49 11.76l4.96 -31.49 4.91 0 4.97 31.49 -3.9 0 -0.73 -5.64 -5.56 0 -0.75 5.64 -3.9 0zm22.5 0l0 -31.49 8.81 0 0 6.91 -4.98 0 0 5.47 4.7 0 0 6.73 -4.7 0 0 5.33 4.98 0 0 7.05 -8.81 0zm12.04 -10.17c0.59,1.44 1.16,2.52 1.73,3.24 0.56,0.71 1.13,1.07 1.69,1.07 0.52,0 0.95,-0.31 1.29,-0.92 0.34,-0.62 0.51,-1.4 0.51,-2.34 0,-1.05 -0.15,-1.85 -0.44,-2.42 -0.29,-0.56 -0.95,-1.15 -1.97,-1.75 -1.41,-0.83 -2.41,-1.92 -2.99,-3.25 -0.59,-1.33 -0.88,-3.16 -0.88,-5.48 0,-3.02 0.46,-5.47 1.38,-7.37 0.92,-1.9 2.12,-2.85 3.58,-2.85 0.8,0 1.55,0.23 2.26,0.7 0.71,0.47 1.38,1.17 2.02,2.12l-1.23 6.16c-0.45,-0.82 -0.9,-1.45 -1.37,-1.87 -0.47,-0.42 -0.93,-0.64 -1.39,-0.64 -0.47,0 -0.85,0.25 -1.15,0.75 -0.29,0.49 -0.44,1.13 -0.44,1.9 0,0.78 0.13,1.41 0.39,1.89 0.26,0.47 0.75,0.93 1.49,1.35l0.18 0.11c1.6,0.95 2.65,1.98 3.15,3.12 0.35,0.77 0.6,1.7 0.78,2.78 0.18,1.09 0.27,2.29 0.27,3.61 0,3.34 -0.5,6.03 -1.51,8.05 -1,2.04 -2.33,3.05 -4,3.05 -1.01,0 -1.92,-0.38 -2.74,-1.12 -0.82,-0.75 -1.61,-1.91 -2.37,-3.51l1.76 -6.38zm13.12 10.17l0 -24.05 -3.22 0 0 -7.44 10.36 0 0 7.44 -3.22 0 0 24.05 -3.92 0zm12.04 -11.76l3.9 0 -1.46 -10.39c-0.05,-0.32 -0.11,-0.83 -0.19,-1.53 -0.08,-0.71 -0.18,-1.61 -0.3,-2.71 -0.09,0.77 -0.17,1.51 -0.26,2.22 -0.08,0.69 -0.16,1.37 -0.24,2.02l-1.45 10.39zm-5.49 11.76l4.96 -31.49 4.91 0 4.97 31.49 -3.9 0 -0.73 -5.64 -5.56 0 -0.75 5.64 -3.9 0zm15.78 -31.49l3.9 0 0 15.32c0,2.25 0.03,3.87 0.08,4.84 0.05,0.99 0.14,1.81 0.27,2.47 0.14,0.8 0.41,1.42 0.78,1.84 0.37,0.42 0.83,0.63 1.36,0.63 0.54,0 0.99,-0.21 1.36,-0.63 0.37,-0.42 0.64,-1.04 0.79,-1.84 0.13,-0.66 0.22,-1.48 0.27,-2.47 0.05,-0.97 0.08,-2.59 0.08,-4.84l0 -2.15 0 -13.17 3.9 0 0 16.65c0,3.46 -0.09,6 -0.29,7.65 -0.19,1.63 -0.51,3.04 -0.96,4.2 -0.49,1.27 -1.16,2.24 -2.02,2.87 -0.86,0.64 -1.9,0.96 -3.12,0.96 -1.23,0 -2.27,-0.32 -3.13,-0.96 -0.85,-0.63 -1.53,-1.6 -2.02,-2.87 -0.45,-1.16 -0.77,-2.57 -0.96,-4.2 -0.19,-1.65 -0.29,-4.19 -0.29,-7.65l0 -3.27 0 -13.38zm15.76 31.49l0 -31.49 3 0c2.23,0 3.81,0.23 4.73,0.69 0.93,0.45 1.74,1.22 2.44,2.3 0.92,1.39 1.61,3.17 2.08,5.34 0.47,2.17 0.7,4.65 0.7,7.44 0,2.78 -0.23,5.25 -0.7,7.43 -0.47,2.17 -1.16,3.95 -2.08,5.35 -0.69,1.05 -1.48,1.81 -2.37,2.27 -0.89,0.44 -2.27,0.67 -4.14,0.67l-0.66 0 -3 0zm3.88 -7.05l0.66 0c1.54,0 2.66,-0.69 3.37,-2.07 0.71,-1.38 1.06,-3.58 1.06,-6.6 0,-3.01 -0.35,-5.21 -1.06,-6.62 -0.71,-1.4 -1.83,-2.1 -3.37,-2.1l-0.66 0 0 17.39zm14.98 -4.71l3.9 0 -1.46 -10.39c-0.05,-0.32 -0.11,-0.83 -0.19,-1.53 -0.08,-0.71 -0.18,-1.61 -0.3,-2.71 -0.09,0.77 -0.17,1.51 -0.26,2.22 -0.08,0.69 -0.16,1.37 -0.24,2.02l-1.45 10.39zm-5.49 11.76l4.96 -31.49 4.91 0 4.97 31.49 -3.9 0 -0.73 -5.64 -5.56 0 -0.75 5.64 -3.9 0zm16.21 0l0 -31.49 3.92 0 0 24.14 4.87 0 0 7.35 -8.79 0z"/>
  </g>
 </g>
</svg>
